inDegrees=yes
name=ik_Shooting_orientations
DataType=double
version=3
OpenSimVersion=4.3-2021-08-27-4bc7ad9
endheader
time	pelvis_tilt	pelvis_list	pelvis_rotation	pelvis_tx	pelvis_ty	pelvis_tz	hip_flexion_r	hip_adduction_r	hip_rotation_r	knee_angle_r	knee_angle_r_beta	ankle_angle_r	subtalar_angle_r	mtp_angle_r	hip_flexion_l	hip_adduction_l	hip_rotation_l	knee_angle_l	knee_angle_l_beta	ankle_angle_l	subtalar_angle_l	mtp_angle_l	lumbar_extension	lumbar_bending	lumbar_rotation	arm_flex_r	arm_add_r	arm_rot_r	elbow_flex_r	pro_sup_r	wrist_flex_r	wrist_dev_r	arm_flex_l	arm_add_l	arm_rot_l	elbow_flex_l	pro_sup_l	wrist_flex_l	wrist_dev_l
7.25999999999989	52.4074864550111	-11.72815585226445	65.94397143957285	0	0.9399999999999999	0	44.73454777273294	-9.969920186104092	0	59.82754275013607	1.044187604367538	-4.990074233298935	0	0	44.73454777273294	-9.969920186104092	0	59.82754275013607	1.044187604367538	-4.990074233298935	0	0	0	0	0	0	-13.50050485520151	0	75.38969258152049	44.91962040642149	0	0	0	-13.50050485520151	0	75.38969258152049	44.91962040642149	0	0
7.269999999999889	49.08173280063025	-6.664204922042624	90.1334033434687	0	0.9399999999999999	0	44.73455451471497	-9.969922713467739	0	59.82754633830417	1.044187666992885	-4.990075309439797	0	0	44.73455451471497	-9.969922713467739	0	59.82754633830417	1.044187666992885	-4.990075309439797	0	0	0	0	0	0	-13.50052495231776	0	75.38968268845555	44.91962580149301	0	0	0	-13.50052495231776	0	75.38968268845555	44.91962580149301	0	0
7.279999999999889	49.04791312378436	-6.736994228519054	89.98039527923842	0	0.9399999999999999	0	44.7345613815109	-9.969925275533797	0	59.82755000581515	1.044187731003027	-4.990076399338638	0	0	44.7345613815109	-9.969925275533797	0	59.82755000581515	1.044187731003027	-4.990076399338638	0	0	0	0	0	0	-13.5005454738439	0	75.38967261224182	44.919631275286	0	0	0	-13.5005454738439	0	75.38967261224182	44.919631275286	0	0
7.289999999999889	52.25891378225487	-11.8800899060671	65.52908355405282	0	0.9399999999999999	0	44.73457451326043	-9.96993034663541	0	59.82755684110563	1.044187850301351	-4.990078571608906	0	0	44.73457451326043	-9.96993034663541	0	59.82755684110563	1.044187850301351	-4.990078571608906	0	0	0	0	0	0	-13.50058399641063	0	75.38965334293407	44.91964204194068	0	0	0	-13.50058399641063	0	75.38965334293407	44.91964204194068	0	0
7.299999999999889	52.21173008972438	-11.93268973982638	65.39613449039901	0	0.9399999999999999	0	44.73458170009465	-9.969933025215646	0	59.82756068226566	1.044187917342241	-4.990079710790972	0	0	44.73458170009465	-9.969933025215646	0	59.82756068226566	1.044187917342241	-4.990079710790972	0	0	0	0	0	0	-13.50060548589665	0	75.38964279710208	44.91964776587103	0	0	0	-13.50060548589665	0	75.38964279710208	44.91964776587103	0	0
7.309999999999889	42.67440470844637	-4.321618862384755	74.03711341705211	0	0.9399999999999999	0	44.73458799916767	-9.969935385086497	0	59.82756403618937	1.044187975879252	-4.990080715482831	0	0	44.73458799916767	-9.969935385086497	0	59.82756403618937	1.044187975879252	-4.990080715482831	0	0	0	0	0	0	-13.50062426935687	0	75.3896335539541	44.91965280397071	0	0	0	-13.50062426935687	0	75.3896335539541	44.91965280397071	0	0
7.319999999999888	46.20280252733362	-8.065383785607061	57.74613215599132	0	0.9399999999999999	0	44.73459779055611	-9.969939123285787	0	59.82756917649389	1.044188065594491	-4.990082313058502	0	0	44.73459779055611	-9.969939123285787	0	59.82756917649389	1.044188065594491	-4.990082313058502	0	0	0	0	0	0	-13.50065317092849	0	75.38961918623909	44.91966075728054	0	0	0	-13.50065317092849	0	75.38961918623909	44.91966075728054	0	0
7.329999999999888	52.02751286833303	-12.07361386443194	64.93829148595732	0	0.9399999999999999	0	44.73460720389042	-9.969942679220544	0	59.82757415685574	1.044188152518203	-4.99008382940605	0	0	44.73460720389042	-9.969942679220544	0	59.82757415685574	1.044188152518203	-4.99008382940605	0	0	0	0	0	0	-13.50068111321347	0	75.38960537327705	44.9196683376511	0	0	0	-13.50068111321347	0	75.38960537327705	44.9196683376511	0	0
7.339999999999888	40.54937739538799	-3.153602108998579	80.96589582028899	0	0.9399999999999999	0	44.73461645842423	-9.969946215209122	0	59.82757901194132	1.044188237255432	-4.990085340746606	0	0	44.73461645842423	-9.969946215209122	0	59.82757901194132	1.044188237255432	-4.990085340746606	0	0	0	0	0	0	-13.50070841708951	0	75.38959179333305	44.91967585981134	0	0	0	-13.50070841708951	0	75.38959179333305	44.91967585981134	0	0
7.349999999999888	36.47739628762213	1.248108377955486	44.61805294638035	0	0.9399999999999999	0	44.73462312360412	-9.969948699698683	0	59.8275825729832	1.044188299407337	-4.990086397317833	0	0	44.73462312360412	-9.969948699698683	0	59.8275825729832	1.044188299407337	-4.990086397317833	0	0	0	0	0	0	-13.50072834256001	0	75.38958201296728	44.91968116908913	0	0	0	-13.50072834256001	0	75.38958201296728	44.91968116908913	0	0
7.359999999999888	51.88344132631769	-12.23157168968181	64.53444294608597	0	0.9399999999999999	0	44.73463537022351	-9.969953401001346	0	59.82758897360081	1.044188411119189	-4.990088408505923	0	0	44.73463537022351	-9.969953401001346	0	59.82758897360081	1.044188411119189	-4.990088408505923	0	0	0	0	0	0	-13.50076437712903	0	75.3895640424866	44.91969116203708	0	0	0	-13.50076437712903	0	75.3895640424866	44.91969116203708	0	0
7.369999999999887	49.82434077083308	-8.713478008434528	81.10174298918349	0	0.9399999999999999	0	44.73464512041784	-9.969957124928108	0	59.82759408900841	1.044188500399894	-4.99008999992959	0	0	44.73464512041784	-9.969957124928108	0	59.82759408900841	1.044188500399894	-4.99008999992959	0	0	0	0	0	0	-13.50079314568728	0	75.38954973521896	44.91969908486412	0	0	0	-13.50079314568728	0	75.38954973521896	44.91969908486412	0	0
7.379999999999887	60.72067288028205	-6.006741296258305	62.24769366140153	0	0.9399999999999999	0	44.73465441206815	-9.969960673469593	0	59.82759896411807	1.044188585486609	-4.990091516380989	0	0	44.73465441206815	-9.969960673469593	0	59.82759896411807	1.044188585486609	-4.990091516380989	0	0	0	0	0	0	-13.50082056264185	0	75.38953610081097	44.91970663464014	0	0	0	-13.50082056264185	0	75.38953610081097	44.91970663464014	0	0
7.389999999999887	29.35832654462055	5.982807023459002	59.80885920513214	0	0.9399999999999999	0	44.73466105716161	-9.969963148339811	0	59.82760251592209	1.044188647477284	-4.990092568603623	0	0	44.73466105716161	-9.969963148339811	0	59.82760251592209	1.044188647477284	-4.990092568603623	0	0	0	0	0	0	-13.50084043506189	0	75.38952634991978	44.9197119243773	0	0	0	-13.50084043506189	0	75.38952634991978	44.9197119243773	0	0
7.399999999999887	59.21495663734824	0.2141385654066379	78.12320196641276	0	0.9399999999999999	0	44.73467075162186	-9.969966847892252	0	59.82760760416211	1.044188736283825	-4.990094149233432	0	0	44.73467075162186	-9.969966847892252	0	59.82760760416211	1.044188736283825	-4.990094149233432	0	0	0	0	0	0	-13.50086904862126	0	75.38951212443558	44.91971979682381	0	0	0	-13.50086904862126	0	75.38951212443558	44.91971979682381	0	0
7.409999999999886	51.62154868319214	-12.48578001227418	63.85054558988045	0	0.9399999999999999	0	44.73468109791617	-9.96997079091509	0	59.82761303955208	1.044188831149276	-4.990095833388384	0	0	44.73468109791617	-9.96997079091509	0	59.82761303955208	1.044188831149276	-4.990095833388384	0	0	0	0	0	0	-13.5008996069037	0	75.38949694246169	44.91972818951198	0	0	0	-13.5008996069037	0	75.38949694246169	44.91972818951198	0	0
7.419999999999886	59.85673703810097	-29.48094904860326	73.14704412604225	0	0.9399999999999999	0	44.73469684338294	-9.969976864015942	0	59.82762123135078	1.044188974123135	-4.990098433094103	0	0	44.73469684338294	-9.969976864015942	0	59.82762123135078	1.044188974123135	-4.990098433094103	0	0	0	0	0	0	-13.50094578968866	0	75.38947383782947	44.91974108934069	0	0	0	-13.50094578968866	0	75.38947383782947	44.91974108934069	0	0
7.429999999999886	49.58549782818301	-9.091907259695242	80.3801190904386	0	0.9399999999999999	0	44.73470961579655	-9.969981795458759	0	59.82762787520646	1.044189090080292	-4.990100544919681	0	0	44.73470961579655	-9.969981795458759	0	59.82762787520646	1.044189090080292	-4.990100544919681	0	0	0	0	0	0	-13.50098324673262	0	75.38945509580518	44.91975156115839	0	0	0	-13.50098324673262	0	75.38945509580518	44.91975156115839	0	0
